<svg width="285" height="45" viewBox="0 0 285 45" fill="none" xmlns="http://www.w3.org/2000/svg">
<path d="M0.443182 35V0.0909081H6.61364V13.1477H6.86932C7.1875 12.5114 7.63636 11.8352 8.21591 11.1193C8.79545 10.392 9.57955 9.77273 10.5682 9.26136C11.5568 8.73864 12.8182 8.47727 14.3523 8.47727C16.375 8.47727 18.1989 8.99432 19.8239 10.0284C21.4602 11.0511 22.7557 12.5682 23.7102 14.5795C24.6761 16.5795 25.1591 19.0341 25.1591 21.9432C25.1591 24.8182 24.6875 27.2614 23.7443 29.2727C22.8011 31.2841 21.517 32.8182 19.892 33.875C18.267 34.9318 16.4261 35.4602 14.3693 35.4602C12.8693 35.4602 11.625 35.2102 10.6364 34.7102C9.64773 34.2102 8.85227 33.608 8.25 32.9034C7.65909 32.1875 7.19886 31.5114 6.86932 30.875H6.51136V35H0.443182ZM6.49432 21.9091C6.49432 23.6023 6.73295 25.0852 7.21023 26.358C7.69886 27.6307 8.39773 28.625 9.30682 29.3409C10.2273 30.0455 11.3409 30.3977 12.6477 30.3977C14.0114 30.3977 15.1534 30.0341 16.0739 29.3068C16.9943 28.5682 17.6875 27.5625 18.1534 26.2898C18.6307 25.0057 18.8693 23.5455 18.8693 21.9091C18.8693 20.2841 18.6364 18.8409 18.1705 17.5795C17.7045 16.3182 17.0114 15.3295 16.0909 14.6136C15.1705 13.8977 14.0227 13.5398 12.6477 13.5398C11.3295 13.5398 10.2102 13.8864 9.28977 14.5795C8.36932 15.2727 7.67045 16.2443 7.19318 17.4943C6.72727 18.7443 6.49432 20.2159 6.49432 21.9091ZM36.7389 35.5284C35.0798 35.5284 33.5855 35.233 32.256 34.642C30.9378 34.0398 29.8923 33.1534 29.1196 31.983C28.3582 30.8125 27.9776 29.3693 27.9776 27.6534C27.9776 26.1761 28.2503 24.9545 28.7957 23.9886C29.3412 23.0227 30.0855 22.25 31.0287 21.6705C31.9719 21.0909 33.0344 20.6534 34.2162 20.358C35.4094 20.0511 36.6423 19.8295 37.9151 19.6932C39.4491 19.5341 40.6935 19.392 41.648 19.267C42.6026 19.1307 43.2957 18.9261 43.7276 18.6534C44.1707 18.3693 44.3923 17.9318 44.3923 17.3409V17.2386C44.3923 15.9545 44.0116 14.9602 43.2503 14.2557C42.4889 13.5511 41.3923 13.1989 39.9605 13.1989C38.4491 13.1989 37.2503 13.5284 36.3639 14.1875C35.4889 14.8466 34.898 15.625 34.5912 16.5227L28.8298 15.7045C29.2844 14.1136 30.0344 12.7841 31.0798 11.7159C32.1253 10.6364 33.4037 9.82954 34.9151 9.29545C36.4264 8.75 38.0969 8.47727 39.9264 8.47727C41.1878 8.47727 42.4435 8.625 43.6935 8.92045C44.9435 9.21591 46.0855 9.70454 47.1196 10.3864C48.1537 11.0568 48.9832 11.9716 49.6082 13.1307C50.2446 14.2898 50.5628 15.7386 50.5628 17.4773V35H44.631V31.4034H44.4264C44.0514 32.1307 43.523 32.8125 42.8412 33.4489C42.1707 34.0739 41.3241 34.5795 40.3014 34.9659C39.2901 35.3409 38.1026 35.5284 36.7389 35.5284ZM38.3412 30.9943C39.5798 30.9943 40.6537 30.75 41.5628 30.2614C42.4719 29.7614 43.1707 29.1023 43.6594 28.2841C44.1594 27.4659 44.4094 26.5739 44.4094 25.608V22.5227C44.2162 22.6818 43.8866 22.8295 43.4207 22.9659C42.9662 23.1023 42.4548 23.2216 41.8866 23.3239C41.3185 23.4261 40.756 23.517 40.1991 23.5966C39.6423 23.6761 39.1594 23.7443 38.7503 23.8011C37.8298 23.9261 37.006 24.1307 36.2787 24.4148C35.5514 24.6989 34.9776 25.0966 34.5571 25.608C34.1366 26.108 33.9264 26.7557 33.9264 27.5511C33.9264 28.6875 34.3412 29.5455 35.1707 30.125C36.0003 30.7045 37.0571 30.9943 38.3412 30.9943ZM76.2605 15.7386L70.6355 16.3523C70.4764 15.7841 70.198 15.25 69.8003 14.75C69.4139 14.25 68.8912 13.8466 68.2321 13.5398C67.573 13.233 66.7662 13.0795 65.8116 13.0795C64.5276 13.0795 63.448 13.358 62.573 13.9148C61.7094 14.4716 61.2832 15.1932 61.2946 16.0795C61.2832 16.8409 61.5616 17.4602 62.1298 17.9375C62.7094 18.4148 63.6639 18.8068 64.9935 19.1136L69.4594 20.0682C71.9366 20.6023 73.7776 21.4489 74.9821 22.608C76.198 23.767 76.8116 25.2841 76.823 27.1591C76.8116 28.8068 76.3287 30.2614 75.3741 31.5227C74.431 32.7727 73.1185 33.75 71.4366 34.4545C69.7548 35.1591 67.823 35.5114 65.6412 35.5114C62.4366 35.5114 59.8571 34.8409 57.9026 33.5C55.948 32.1477 54.7832 30.267 54.4082 27.858L60.4253 27.2784C60.698 28.4602 61.2776 29.3523 62.1639 29.9545C63.0503 30.5568 64.2037 30.858 65.6241 30.858C67.0901 30.858 68.2662 30.5568 69.1526 29.9545C70.0503 29.3523 70.4991 28.608 70.4991 27.7216C70.4991 26.9716 70.2094 26.3523 69.6298 25.8636C69.0616 25.375 68.1753 25 66.9707 24.7386L62.5048 23.8011C59.9935 23.2784 58.1355 22.3977 56.931 21.1591C55.7264 19.9091 55.1298 18.3295 55.1412 16.4205C55.1298 14.8068 55.5673 13.4091 56.4537 12.2273C57.3514 11.0341 58.5957 10.1136 60.1866 9.46591C61.7889 8.80682 63.6355 8.47727 65.7264 8.47727C68.7946 8.47727 71.2094 9.13068 72.9707 10.4375C74.7435 11.7443 75.8401 13.5114 76.2605 15.7386ZM92.302 35.5114C89.677 35.5114 87.4099 34.9659 85.5009 33.875C83.6031 32.7727 82.1429 31.2159 81.1202 29.2045C80.0974 27.1818 79.5861 24.8011 79.5861 22.0625C79.5861 19.3693 80.0974 17.0057 81.1202 14.9716C82.1543 12.9261 83.5974 11.3352 85.4497 10.1989C87.302 9.05114 89.4781 8.47727 91.9781 8.47727C93.5918 8.47727 95.1145 8.73864 96.5463 9.26136C97.9895 9.77273 99.2622 10.5682 100.364 11.6477C101.478 12.7273 102.353 14.1023 102.989 15.7727C103.626 17.4318 103.944 19.4091 103.944 21.7045V23.5966H82.4838V19.4375H98.0293C98.0179 18.2557 97.7622 17.2045 97.2622 16.2841C96.7622 15.3523 96.0634 14.6193 95.1656 14.0852C94.2793 13.5511 93.2452 13.2841 92.0634 13.2841C90.802 13.2841 89.694 13.5909 88.7395 14.2045C87.7849 14.8068 87.0406 15.6023 86.5065 16.5909C85.9838 17.5682 85.7168 18.642 85.7054 19.8125V23.4432C85.7054 24.9659 85.9838 26.2727 86.5406 27.3636C87.0974 28.4432 87.8759 29.2727 88.8759 29.8523C89.8759 30.4205 91.0463 30.7045 92.3872 30.7045C93.2849 30.7045 94.0974 30.5795 94.8247 30.3295C95.552 30.0682 96.1827 29.6875 96.7168 29.1875C97.2509 28.6875 97.6543 28.0682 97.927 27.3295L103.688 27.9773C103.325 29.5 102.632 30.8295 101.609 31.9659C100.597 33.0909 99.302 33.9659 97.7224 34.5909C96.1429 35.2045 94.3361 35.5114 92.302 35.5114ZM117.68 35.4602C115.623 35.4602 113.782 34.9318 112.157 33.875C110.532 32.8182 109.248 31.2841 108.305 29.2727C107.362 27.2614 106.89 24.8182 106.89 21.9432C106.89 19.0341 107.368 16.5795 108.322 14.5795C109.288 12.5682 110.589 11.0511 112.226 10.0284C113.862 8.99432 115.686 8.47727 117.697 8.47727C119.231 8.47727 120.493 8.73864 121.481 9.26136C122.47 9.77273 123.254 10.392 123.834 11.1193C124.413 11.8352 124.862 12.5114 125.18 13.1477H125.436V0.0909081H131.623V35H125.555V30.875H125.18C124.862 31.5114 124.402 32.1875 123.799 32.9034C123.197 33.608 122.402 34.2102 121.413 34.7102C120.424 35.2102 119.18 35.4602 117.68 35.4602ZM119.402 30.3977C120.709 30.3977 121.822 30.0455 122.743 29.3409C123.663 28.625 124.362 27.6307 124.839 26.358C125.316 25.0852 125.555 23.6023 125.555 21.9091C125.555 20.2159 125.316 18.7443 124.839 17.4943C124.373 16.2443 123.68 15.2727 122.76 14.5795C121.851 13.8864 120.731 13.5398 119.402 13.5398C118.027 13.5398 116.879 13.8977 115.959 14.6136C115.038 15.3295 114.345 16.3182 113.879 17.5795C113.413 18.8409 113.18 20.2841 113.18 21.9091C113.18 23.5455 113.413 25.0057 113.879 26.2898C114.356 27.5625 115.055 28.5682 115.976 29.3068C116.907 30.0341 118.049 30.3977 119.402 30.3977ZM136.999 35V8.81818H142.896V13.267H143.203C143.749 11.767 144.652 10.5966 145.913 9.75568C147.175 8.90341 148.68 8.47727 150.43 8.47727C152.203 8.47727 153.697 8.90909 154.913 9.77273C156.141 10.625 157.004 11.7898 157.504 13.267H157.777C158.357 11.8125 159.334 10.6534 160.709 9.78977C162.095 8.91477 163.737 8.47727 165.635 8.47727C168.044 8.47727 170.01 9.23864 171.533 10.7614C173.055 12.2841 173.817 14.5057 173.817 17.4261V35H167.629V18.3807C167.629 16.7557 167.197 15.5682 166.334 14.8182C165.47 14.0568 164.413 13.6761 163.163 13.6761C161.675 13.6761 160.51 14.142 159.669 15.0739C158.839 15.9943 158.425 17.1932 158.425 18.6705V35H152.374V18.125C152.374 16.7727 151.964 15.6932 151.146 14.8864C150.339 14.0795 149.283 13.6761 147.976 13.6761C147.089 13.6761 146.283 13.9034 145.555 14.358C144.828 14.8011 144.249 15.4318 143.817 16.25C143.385 17.0568 143.169 18 143.169 19.0795V35H136.999ZM190.297 35.5114C187.74 35.5114 185.524 34.9489 183.649 33.8239C181.774 32.6989 180.32 31.125 179.286 29.1023C178.263 27.0795 177.752 24.7159 177.752 22.0114C177.752 19.3068 178.263 16.9375 179.286 14.9034C180.32 12.8693 181.774 11.2898 183.649 10.1648C185.524 9.03977 187.74 8.47727 190.297 8.47727C192.854 8.47727 195.07 9.03977 196.945 10.1648C198.82 11.2898 200.269 12.8693 201.291 14.9034C202.326 16.9375 202.843 19.3068 202.843 22.0114C202.843 24.7159 202.326 27.0795 201.291 29.1023C200.269 31.125 198.82 32.6989 196.945 33.8239C195.07 34.9489 192.854 35.5114 190.297 35.5114ZM190.331 30.5682C191.718 30.5682 192.877 30.1875 193.809 29.4261C194.74 28.6534 195.434 27.6193 195.888 26.3239C196.354 25.0284 196.587 23.5852 196.587 21.9943C196.587 20.392 196.354 18.9432 195.888 17.6477C195.434 16.3409 194.74 15.3011 193.809 14.5284C192.877 13.7557 191.718 13.3693 190.331 13.3693C188.911 13.3693 187.729 13.7557 186.786 14.5284C185.854 15.3011 185.155 16.3409 184.689 17.6477C184.235 18.9432 184.007 20.392 184.007 21.9943C184.007 23.5852 184.235 25.0284 184.689 26.3239C185.155 27.6193 185.854 28.6534 186.786 29.4261C187.729 30.1875 188.911 30.5682 190.331 30.5682ZM213.05 19.6591V35H206.88V8.81818H212.778V13.267H213.084C213.687 11.8011 214.647 10.6364 215.965 9.77273C217.295 8.90909 218.937 8.47727 220.891 8.47727C222.698 8.47727 224.272 8.86364 225.613 9.63636C226.965 10.4091 228.011 11.5284 228.749 12.9943C229.499 14.4602 229.868 16.2386 229.857 18.3295V35H223.687V19.2841C223.687 17.5341 223.232 16.1648 222.323 15.1761C221.425 14.1875 220.181 13.6932 218.59 13.6932C217.511 13.6932 216.55 13.9318 215.709 14.4091C214.88 14.875 214.226 15.5511 213.749 16.4375C213.283 17.3239 213.05 18.3977 213.05 19.6591ZM246.521 35.5114C243.896 35.5114 241.629 34.9659 239.72 33.875C237.822 32.7727 236.362 31.2159 235.339 29.2045C234.316 27.1818 233.805 24.8011 233.805 22.0625C233.805 19.3693 234.316 17.0057 235.339 14.9716C236.373 12.9261 237.816 11.3352 239.668 10.1989C241.521 9.05114 243.697 8.47727 246.197 8.47727C247.811 8.47727 249.333 8.73864 250.765 9.26136C252.208 9.77273 253.481 10.5682 254.583 11.6477C255.697 12.7273 256.572 14.1023 257.208 15.7727C257.845 17.4318 258.163 19.4091 258.163 21.7045V23.5966H236.703V19.4375H252.248C252.237 18.2557 251.981 17.2045 251.481 16.2841C250.981 15.3523 250.282 14.6193 249.384 14.0852C248.498 13.5511 247.464 13.2841 246.282 13.2841C245.021 13.2841 243.913 13.5909 242.958 14.2045C242.004 14.8068 241.259 15.6023 240.725 16.5909C240.203 17.5682 239.936 18.642 239.924 19.8125V23.4432C239.924 24.9659 240.203 26.2727 240.759 27.3636C241.316 28.4432 242.095 29.2727 243.095 29.8523C244.095 30.4205 245.265 30.7045 246.606 30.7045C247.504 30.7045 248.316 30.5795 249.043 30.3295C249.771 30.0682 250.401 29.6875 250.936 29.1875C251.47 28.6875 251.873 28.0682 252.146 27.3295L257.907 27.9773C257.543 29.5 256.85 30.8295 255.828 31.9659C254.816 33.0909 253.521 33.9659 251.941 34.5909C250.362 35.2045 248.555 35.5114 246.521 35.5114ZM265.268 44.8182C264.427 44.8182 263.649 44.75 262.933 44.6136C262.228 44.4886 261.666 44.3409 261.245 44.1705L262.677 39.3636C263.575 39.625 264.376 39.75 265.081 39.7386C265.785 39.7273 266.405 39.5057 266.939 39.0739C267.484 38.6534 267.944 37.9489 268.319 36.9602L268.848 35.5455L259.353 8.81818H265.899L271.933 28.5909H272.206L278.257 8.81818H284.819L274.336 38.1705C273.848 39.5568 273.2 40.7443 272.393 41.733C271.586 42.733 270.598 43.4943 269.427 44.017C268.268 44.5511 266.882 44.8182 265.268 44.8182Z" fill="white"/>
</svg>
