<svg width="290" height="45" viewBox="0 0 290 45" fill="none" xmlns="http://www.w3.org/2000/svg">
<path d="M0.0340909 35V0.0909081H7.29545V13.2159H7.51705C7.83523 12.5114 8.29545 11.7955 8.89773 11.0682C9.51136 10.3295 10.3068 9.71591 11.2841 9.22727C12.2727 8.72727 13.5 8.47727 14.9659 8.47727C16.875 8.47727 18.6364 8.97727 20.25 9.97727C21.8636 10.9659 23.1534 12.4602 24.1193 14.4602C25.0852 16.4489 25.5682 18.9432 25.5682 21.9432C25.5682 24.8636 25.0966 27.3295 24.1534 29.3409C23.2216 31.3409 21.9489 32.858 20.3352 33.892C18.733 34.9148 16.9375 35.4261 14.9489 35.4261C13.5398 35.4261 12.3409 35.1932 11.3523 34.7273C10.375 34.2614 9.57386 33.6761 8.94886 32.9716C8.32386 32.2557 7.84659 31.5341 7.51705 30.8068H7.19318V35H0.0340909ZM7.14205 21.9091C7.14205 23.4659 7.35795 24.8239 7.78977 25.983C8.22159 27.142 8.84659 28.0455 9.66477 28.6932C10.483 29.3295 11.4773 29.6477 12.6477 29.6477C13.8295 29.6477 14.8295 29.3239 15.6477 28.6761C16.4659 28.017 17.0852 27.108 17.5057 25.9489C17.9375 24.7784 18.1534 23.4318 18.1534 21.9091C18.1534 20.3977 17.9432 19.0682 17.5227 17.9205C17.1023 16.7727 16.483 15.875 15.6648 15.2273C14.8466 14.5795 13.8409 14.2557 12.6477 14.2557C11.4659 14.2557 10.4659 14.5682 9.64773 15.1932C8.84091 15.8182 8.22159 16.7045 7.78977 17.8523C7.35795 19 7.14205 20.3523 7.14205 21.9091ZM36.6793 35.4943C35.0088 35.4943 33.5202 35.2045 32.2134 34.625C30.9065 34.0341 29.8724 33.1648 29.1111 32.017C28.3611 30.858 27.9861 29.4148 27.9861 27.6875C27.9861 26.233 28.2531 25.0114 28.7872 24.0227C29.3213 23.0341 30.0486 22.2386 30.969 21.6364C31.8895 21.0341 32.9349 20.5795 34.1054 20.2727C35.2872 19.9659 36.5259 19.75 37.8213 19.625C39.344 19.4659 40.5713 19.3182 41.5031 19.1818C42.4349 19.0341 43.1111 18.8182 43.5315 18.5341C43.952 18.25 44.1622 17.8295 44.1622 17.2727V17.1705C44.1622 16.0909 43.8213 15.2557 43.1395 14.6648C42.469 14.0739 41.5145 13.7784 40.2759 13.7784C38.969 13.7784 37.9293 14.0682 37.1565 14.6477C36.3838 15.2159 35.8724 15.9318 35.6224 16.7955L28.9065 16.25C29.2474 14.6591 29.9179 13.2841 30.9179 12.125C31.9179 10.9545 33.2077 10.0568 34.7872 9.43182C36.3781 8.79545 38.219 8.47727 40.3099 8.47727C41.7645 8.47727 43.1565 8.64773 44.4861 8.98864C45.827 9.32955 47.0145 9.85795 48.0486 10.5739C49.094 11.2898 49.9179 12.2102 50.5202 13.3352C51.1224 14.4489 51.4236 15.7841 51.4236 17.3409V35H44.5372V31.3693H44.3327C43.9122 32.1875 43.3497 32.9091 42.6452 33.5341C41.9406 34.1477 41.094 34.6307 40.1054 34.983C39.1168 35.3239 37.9747 35.4943 36.6793 35.4943ZM38.7588 30.483C39.827 30.483 40.7702 30.2727 41.5884 29.8523C42.4065 29.4205 43.0486 28.8409 43.5145 28.1136C43.9804 27.3864 44.2134 26.5625 44.2134 25.642V22.8636C43.9861 23.0114 43.6736 23.1477 43.2759 23.2727C42.8895 23.3864 42.452 23.4943 41.9634 23.5966C41.4747 23.6875 40.9861 23.7727 40.4974 23.8523C40.0088 23.9205 39.5656 23.983 39.1679 24.0398C38.3156 24.1648 37.5713 24.3636 36.9349 24.6364C36.2986 24.9091 35.8043 25.2784 35.452 25.7443C35.0997 26.1989 34.9236 26.767 34.9236 27.4489C34.9236 28.4375 35.2815 29.1932 35.9974 29.7159C36.7247 30.2273 37.6452 30.483 38.7588 30.483ZM77.6412 16.2841L70.9935 16.6932C70.8798 16.125 70.6355 15.6136 70.2605 15.1591C69.8855 14.6932 69.3912 14.3239 68.7776 14.0511C68.1753 13.767 67.4537 13.625 66.6128 13.625C65.4878 13.625 64.5389 13.8636 63.7662 14.3409C62.9935 14.8068 62.6071 15.4318 62.6071 16.2159C62.6071 16.8409 62.8571 17.3693 63.3571 17.8011C63.8571 18.233 64.7151 18.5795 65.931 18.8409L70.6696 19.7955C73.2151 20.3182 75.1128 21.1591 76.3628 22.3182C77.6128 23.4773 78.2378 25 78.2378 26.8864C78.2378 28.6023 77.7321 30.108 76.7207 31.4034C75.7207 32.6989 74.3457 33.7102 72.5957 34.4375C70.8571 35.1534 68.8514 35.5114 66.5787 35.5114C63.1128 35.5114 60.3514 34.7898 58.2946 33.3466C56.2491 31.892 55.0503 29.9148 54.698 27.4148L61.8401 27.0398C62.056 28.0966 62.5787 28.9034 63.4082 29.4602C64.2378 30.0057 65.3003 30.2784 66.5957 30.2784C67.8685 30.2784 68.8912 30.0341 69.6639 29.5455C70.448 29.0455 70.8457 28.4034 70.8571 27.6193C70.8457 26.9602 70.5673 26.4205 70.0219 26C69.4764 25.5682 68.6355 25.2386 67.4991 25.0114L62.9651 24.108C60.4082 23.5966 58.5048 22.7102 57.2548 21.4489C56.0162 20.1875 55.3969 18.5795 55.3969 16.625C55.3969 14.9432 55.8514 13.4943 56.7605 12.2784C57.681 11.0625 58.9707 10.125 60.6298 9.46591C62.3003 8.80682 64.2548 8.47727 66.4935 8.47727C69.8003 8.47727 72.4026 9.17614 74.3003 10.5739C76.2094 11.9716 77.323 13.875 77.6412 16.2841ZM93.542 35.5114C90.8489 35.5114 88.5307 34.9659 86.5875 33.875C84.6557 32.7727 83.167 31.2159 82.1216 29.2045C81.0761 27.1818 80.5534 24.7898 80.5534 22.0284C80.5534 19.3352 81.0761 16.9716 82.1216 14.9375C83.167 12.9034 84.6386 11.3182 86.5364 10.1818C88.4455 9.04545 90.6841 8.47727 93.2523 8.47727C94.9795 8.47727 96.5875 8.75568 98.0761 9.3125C99.5761 9.85795 100.883 10.6818 101.997 11.7841C103.122 12.8864 103.997 14.2727 104.622 15.9432C105.247 17.6023 105.559 19.5455 105.559 21.7727V23.767H83.4511V19.267H98.7239C98.7239 18.2216 98.4966 17.2955 98.042 16.4886C97.5875 15.6818 96.9568 15.0511 96.15 14.5966C95.3545 14.1307 94.4284 13.8977 93.3716 13.8977C92.2693 13.8977 91.292 14.1534 90.4398 14.6648C89.5989 15.1648 88.9398 15.8409 88.4625 16.6932C87.9852 17.5341 87.7409 18.4716 87.7295 19.5057V23.7841C87.7295 25.0795 87.9682 26.1989 88.4455 27.142C88.9341 28.0852 89.6216 28.8125 90.508 29.3239C91.3943 29.8352 92.4455 30.0909 93.6614 30.0909C94.4682 30.0909 95.2068 29.9773 95.8773 29.75C96.5477 29.5227 97.1216 29.1818 97.5989 28.7273C98.0761 28.2727 98.4398 27.7159 98.6898 27.0568L105.406 27.5C105.065 29.1136 104.366 30.5227 103.309 31.7273C102.264 32.9205 100.911 33.8523 99.2523 34.5227C97.6045 35.1818 95.7011 35.5114 93.542 35.5114ZM118.745 35.4261C116.757 35.4261 114.956 34.9148 113.342 33.892C111.74 32.858 110.467 31.3409 109.524 29.3409C108.592 27.3295 108.126 24.8636 108.126 21.9432C108.126 18.9432 108.609 16.4489 109.575 14.4602C110.541 12.4602 111.825 10.9659 113.427 9.97727C115.041 8.97727 116.808 8.47727 118.728 8.47727C120.194 8.47727 121.416 8.72727 122.393 9.22727C123.382 9.71591 124.177 10.3295 124.78 11.0682C125.393 11.7955 125.859 12.5114 126.177 13.2159H126.399V0.0909081H133.643V35H126.484V30.8068H126.177C125.836 31.5341 125.353 32.2557 124.728 32.9716C124.115 33.6761 123.314 34.2614 122.325 34.7273C121.348 35.1932 120.155 35.4261 118.745 35.4261ZM121.047 29.6477C122.217 29.6477 123.206 29.3295 124.012 28.6932C124.831 28.0455 125.456 27.142 125.887 25.983C126.331 24.8239 126.552 23.4659 126.552 21.9091C126.552 20.3523 126.336 19 125.905 17.8523C125.473 16.7045 124.848 15.8182 124.03 15.1932C123.211 14.5682 122.217 14.2557 121.047 14.2557C119.853 14.2557 118.848 14.5795 118.03 15.2273C117.211 15.875 116.592 16.7727 116.172 17.9205C115.751 19.0682 115.541 20.3977 115.541 21.9091C115.541 23.4318 115.751 24.7784 116.172 25.9489C116.603 27.108 117.223 28.017 118.03 28.6761C118.848 29.3239 119.853 29.6477 121.047 29.6477ZM138.413 35V8.81818H145.334V13.4375H145.641C146.186 11.9034 147.095 10.6932 148.368 9.80682C149.641 8.92045 151.163 8.47727 152.936 8.47727C154.732 8.47727 156.26 8.92614 157.521 9.82386C158.783 10.7102 159.624 11.9148 160.044 13.4375H160.317C160.851 11.9375 161.817 10.7386 163.214 9.84091C164.624 8.93182 166.288 8.47727 168.209 8.47727C170.652 8.47727 172.635 9.25568 174.158 10.8125C175.692 12.358 176.459 14.5511 176.459 17.392V35H169.214V18.8239C169.214 17.3693 168.828 16.2784 168.055 15.5511C167.283 14.8239 166.317 14.4602 165.158 14.4602C163.839 14.4602 162.811 14.8807 162.072 15.7216C161.334 16.5511 160.964 17.6477 160.964 19.0114V35H153.925V18.6705C153.925 17.3864 153.555 16.3636 152.817 15.6023C152.089 14.8409 151.129 14.4602 149.936 14.4602C149.129 14.4602 148.402 14.6648 147.754 15.0739C147.118 15.4716 146.612 16.0341 146.237 16.7614C145.862 17.4773 145.675 18.3182 145.675 19.2841V35H138.413ZM192.824 35.5114C190.176 35.5114 187.887 34.9489 185.955 33.8239C184.034 32.6875 182.551 31.108 181.506 29.0852C180.461 27.0511 179.938 24.6932 179.938 22.0114C179.938 19.3068 180.461 16.9432 181.506 14.9205C182.551 12.8864 184.034 11.3068 185.955 10.1818C187.887 9.04545 190.176 8.47727 192.824 8.47727C195.472 8.47727 197.756 9.04545 199.676 10.1818C201.608 11.3068 203.097 12.8864 204.142 14.9205C205.188 16.9432 205.711 19.3068 205.711 22.0114C205.711 24.6932 205.188 27.0511 204.142 29.0852C203.097 31.108 201.608 32.6875 199.676 33.8239C197.756 34.9489 195.472 35.5114 192.824 35.5114ZM192.858 29.8864C194.063 29.8864 195.068 29.5455 195.875 28.8636C196.682 28.1705 197.29 27.2273 197.699 26.0341C198.12 24.8409 198.33 23.483 198.33 21.9602C198.33 20.4375 198.12 19.0795 197.699 17.8864C197.29 16.6932 196.682 15.75 195.875 15.0568C195.068 14.3636 194.063 14.017 192.858 14.017C191.642 14.017 190.62 14.3636 189.79 15.0568C188.972 15.75 188.353 16.6932 187.932 17.8864C187.523 19.0795 187.318 20.4375 187.318 21.9602C187.318 23.483 187.523 24.8409 187.932 26.0341C188.353 27.2273 188.972 28.1705 189.79 28.8636C190.62 29.5455 191.642 29.8864 192.858 29.8864ZM216.493 19.8636V35H209.232V8.81818H216.153V13.4375H216.459C217.039 11.9148 218.011 10.7102 219.374 9.82386C220.738 8.92614 222.391 8.47727 224.334 8.47727C226.153 8.47727 227.738 8.875 229.09 9.67045C230.442 10.4659 231.493 11.6023 232.243 13.0795C232.993 14.5455 233.368 16.2955 233.368 18.3295V35H226.107V19.625C226.118 18.0227 225.709 16.7727 224.88 15.875C224.05 14.9659 222.908 14.5114 221.454 14.5114C220.476 14.5114 219.613 14.7216 218.863 15.142C218.124 15.5625 217.545 16.1761 217.124 16.983C216.715 17.7784 216.505 18.7386 216.493 19.8636ZM249.823 35.5114C247.13 35.5114 244.812 34.9659 242.869 33.875C240.937 32.7727 239.448 31.2159 238.403 29.2045C237.357 27.1818 236.835 24.7898 236.835 22.0284C236.835 19.3352 237.357 16.9716 238.403 14.9375C239.448 12.9034 240.92 11.3182 242.818 10.1818C244.727 9.04545 246.965 8.47727 249.534 8.47727C251.261 8.47727 252.869 8.75568 254.357 9.3125C255.857 9.85795 257.164 10.6818 258.278 11.7841C259.403 12.8864 260.278 14.2727 260.903 15.9432C261.528 17.6023 261.84 19.5455 261.84 21.7727V23.767H239.732V19.267H255.005C255.005 18.2216 254.778 17.2955 254.323 16.4886C253.869 15.6818 253.238 15.0511 252.431 14.5966C251.636 14.1307 250.71 13.8977 249.653 13.8977C248.551 13.8977 247.573 14.1534 246.721 14.6648C245.88 15.1648 245.221 15.8409 244.744 16.6932C244.266 17.5341 244.022 18.4716 244.011 19.5057V23.7841C244.011 25.0795 244.249 26.1989 244.727 27.142C245.215 28.0852 245.903 28.8125 246.789 29.3239C247.676 29.8352 248.727 30.0909 249.943 30.0909C250.749 30.0909 251.488 29.9773 252.159 29.75C252.829 29.5227 253.403 29.1818 253.88 28.7273C254.357 28.2727 254.721 27.7159 254.971 27.0568L261.687 27.5C261.346 29.1136 260.647 30.5227 259.59 31.7273C258.545 32.9205 257.193 33.8523 255.534 34.5227C253.886 35.1818 251.982 35.5114 249.823 35.5114ZM269.159 44.8182C268.238 44.8182 267.375 44.7443 266.568 44.5966C265.772 44.4602 265.113 44.2841 264.591 44.0682L266.227 38.6477C267.079 38.9091 267.846 39.0511 268.528 39.0739C269.221 39.0966 269.818 38.9375 270.318 38.5966C270.829 38.2557 271.244 37.6761 271.562 36.858L271.988 35.75L262.596 8.81818H270.233L275.653 28.0455H275.926L281.397 8.81818H289.085L278.909 37.8295C278.42 39.2386 277.755 40.4659 276.915 41.5114C276.085 42.5682 275.034 43.3807 273.761 43.9489C272.488 44.5284 270.954 44.8182 269.159 44.8182Z" fill="white"/>
</svg>
